<?xml version="1.0" encoding="UTF-8"?>
<svg width="144px" height="159px" viewBox="0 0 144 159" version="1.1" xmlns="http://www.w3.org/2000/svg" xmlns:xlink="http://www.w3.org/1999/xlink">
    <!-- Generator: Sketch 47.1 (45422) - http://www.bohemiancoding.com/sketch -->
    <title>Group 4 Copy 4</title>
    <desc>Created with Sketch.</desc>
    <defs></defs>
    <g id="Logo" stroke="none" stroke-width="1" fill="none" fill-rule="evenodd">
        <g id="Group-4-Copy-4">
            <polygon id="Rectangle" fill="#D33257" points="0 0 144 0 130.881024 144 72 158.97379 14.0093822 144"></polygon>
            <polygon id="Rectangle" fill="#F05377" points="72 14 131.5 14 120.658624 133 72 145.374174"></polygon>
            <polygon id="Rectangle-Copy" fill="#F05377" opacity="0.459182518" transform="translate(42.750000, 79.687087) scale(-1, 1) translate(-42.750000, -79.687087) " points="13 14 72.5 14 61.6586241 133 13 145.374174"></polygon>
            <g id="Group-2" transform="translate(47.000000, 34.000000)" fill="#FFFFFF">
                <polygon id="F-Copy" opacity="0.897644928" points="16.8 84 16.8 51.48 50.52 51.48 50.52 37.2 16.8 37.2 16.8 15 53.88 15 53.88 0 0.6 0 0.6 84"></polygon>
                <polygon id="F-Copy" points="25.2226649 51.48 50.52 51.48 50.52 37.2 25.20816 37.2 25.1664585 15 53.88 15 53.88 0 25.0413538 0"></polygon>
            </g>
        </g>
    </g>
</svg>