<?xml version="1.0" encoding="UTF-8"?>
<svg width="20px" height="16px" viewBox="0 0 20 16" version="1.1" xmlns="http://www.w3.org/2000/svg" xmlns:xlink="http://www.w3.org/1999/xlink">
    <!-- Generator: Sketch 47 (45396) - http://www.bohemiancoding.com/sketch -->
    <title>Combined Shape</title>
    <desc>Created with Sketch.</desc>
    <defs></defs>
    <g id="Site" stroke="none" stroke-width="1" fill="none" fill-rule="evenodd">
        <g id="Desktop" transform="translate(-14.000000, -182.000000)" fill="#666666">
            <path d="M33.8019802,188.451089 L33.8021386,188.451224 C33.8021386,190.934986 33.7742911,193.417956 33.8021386,195.899343 C33.779701,196.890986 32.9783347,197.689255 31.9859188,197.707046 L31.9866931,197.707046 L18.1468911,197.707046 L15.7961982,197.707046 C15.3158418,197.703937 14.8563764,197.509798 14.5199012,197.167897 C14.1826497,196.825224 13.9962317,196.363442 14.0000992,195.883085 L14.0000992,189.896947 L14.0000992,187.124669 C14.8160992,188.021917 15.8216636,188.55255 16.7367327,189.202293 C18.3006931,190.316947 19.8756634,191.402115 21.439703,192.516749 C21.9308713,192.859422 22.4707921,193.126277 23.0416436,193.308828 C23.6186931,193.48905 24.237505,193.481321 24.809901,193.287168 C25.4217624,193.082178 25.9964752,192.782059 26.5147327,192.398396 C28.5521584,190.972059 30.5996832,189.560317 32.6432475,188.130079 C33.0439406,187.850851 33.4059406,187.520554 33.8019802,187.199545 L33.8019802,188.451089 Z M33.3130693,185.507129 C32.8922772,186.135228 32.3500396,186.674356 31.7188515,187.091287 C29.8887129,188.352119 28.0594455,189.61604 26.2392475,190.895446 C25.7349109,191.281426 25.191901,191.613267 24.6179604,191.885545 C24.1546337,192.106772 23.6147129,192.09903 23.1583366,191.863113 C22.6547723,191.598578 22.1674653,191.303865 21.6987129,190.982083 C20.1439406,189.919271 18.5945545,188.844855 17.0513861,187.758123 C16.3660594,187.274677 15.6335242,186.84537 15.0711875,186.215727 C14.6550291,185.758578 14.2791083,185.275133 14.1050688,184.667152 C14.0021915,184.329133 13.9805321,183.971766 14.041641,183.623687 C14.1143519,183.271747 14.2721558,182.942994 14.5026509,182.667628 C14.7648687,182.338875 15.1632251,182.148598 15.5840172,182.152459 C16.7481564,182.13699 17.9107505,182.13699 19.0749089,182.134669 L31.9600574,182.134669 C32.843404,182.10837 33.612295,182.73259 33.7677604,183.602036 L33.7677604,183.647673 C33.8505347,184.302069 33.6888614,184.96496 33.3129287,185.507198 L33.3130693,185.507129 Z" id="Combined-Shape"></path>
        </g>
    </g>
</svg>