<?xml version="1.0" encoding="UTF-8"?>
<svg width="20px" height="16px" viewBox="0 0 20 16" version="1.1" xmlns="http://www.w3.org/2000/svg" xmlns:xlink="http://www.w3.org/1999/xlink">
    <!-- Generator: Sketch 47.1 (45422) - http://www.bohemiancoding.com/sketch -->
    <title>Page 1</title>
    <desc>Created with Sketch.</desc>
    <defs></defs>
    <g id="Site" stroke="none" stroke-width="1" fill="none" fill-rule="evenodd">
        <g id="Desktop" transform="translate(-14.000000, -138.000000)" fill="#666666">
            <g id="Page-1" transform="translate(14.000000, 138.000000)">
                <path d="M8.11861956,4.64452 C8.11861956,3.71014 8.84205956,2.95312 9.73423956,2.95312 L13.2694396,2.95312 L13.2694396,2.0914 C13.2694396,0.93672 12.3733396,0 11.2702196,0 L1.99922016,0 C0.895320165,0 0,0.93672 0,2.0922 L0,9.5632 C0,10.71866 0.895319965,11.6562 1.99922016,11.6562 L3.52889956,11.6562 L3.52889956,14.1266 C3.52889956,14.263318 3.71639956,14.35864 3.81327956,14.244568 C4.54217956,13.382068 5.27031956,12.518788 6.00007956,11.656368 L8.16487956,11.656368 C8.13519156,11.528244 8.11878556,11.395428 8.11878556,11.258708 L8.11861956,4.64452 Z" id="Fill-1"></path>
                <path d="M9,12.559358 C9,13.401538 9.65234,14.085138 10.45782,14.085138 L14.30002,14.085138 C14.83126,14.714038 15.36252,15.342958 15.89378,15.971858 C15.964874,16.056234 16.10082,15.98514 16.10082,15.88592 L16.10082,14.08436 L18.50622,14.08436 C19.3109,14.08436 19.96404,13.40154 19.96404,12.55858 L19.96404,5.52578 C19.96404,4.6836 19.3117,4 18.50622,4 L10.45782,4 C9.65236,4 9,4.6836 9,5.52578 L9,12.559358 Z" id="Fill-2"></path>
            </g>
        </g>
    </g>
</svg>