<?xml version="1.0" encoding="UTF-8"?>
<svg width="20px" height="16px" viewBox="0 0 20 16" version="1.1" xmlns="http://www.w3.org/2000/svg" xmlns:xlink="http://www.w3.org/1999/xlink">
    <!-- Generator: Sketch 47 (45396) - http://www.bohemiancoding.com/sketch -->
    <title>Page 1</title>
    <desc>Created with Sketch.</desc>
    <defs></defs>
    <g id="Site" stroke="none" stroke-width="1" fill="none" fill-rule="evenodd">
        <g id="Desktop" transform="translate(-14.000000, -140.000000)" fill="#666666">
            <g id="Page-1" transform="translate(14.000000, 140.000000)">
                <path d="M10.9936585,7.98585366 C10.9936585,8.80426829 10.3305366,9.46736585 9.51214634,9.46736585 C8.6937561,9.46736585 8.03063415,8.8042439 8.03063415,7.98585366 C8.03063415,7.16743902 8.6937561,6.50434146 9.51214634,6.50434146 C10.3305366,6.50434146 10.9936585,7.16746341 10.9936585,7.98585366" id="Fill-1"></path>
                <path d="M11.3680488,12.6943902 C11.3680488,14.2626098 10.5372683,15.5336585 9.51209756,15.5336585 C8.48692683,15.5336585 7.65614634,14.2627073 7.65614634,12.6943902 C7.65614634,11.127122 8.48692683,9.85512195 9.51209756,9.85512195 C10.5372683,9.85512195 11.3680488,11.1270244 11.3680488,12.6943902" id="Fill-2"></path>
                <path d="M5.94609756,2.61243902 C5.94609756,4.01297561 4.81043902,5.14853659 3.41,5.14853659 C2.0085122,5.14853659 0.872926829,4.01287805 0.872926829,2.61243902 C0.872926829,1.21190244 2.00858537,0.0763414634 3.41,0.0763414634 C4.81053659,0.0763414634 5.94609756,1.212 5.94609756,2.61243902" id="Fill-3"></path>
                <path d="M6.58634146,10.6736585 C6.58634146,13.357561 5.16390244,15.5336585 3.41,15.5336585 C1.65504878,15.5336585 0.232683171,13.3575854 0.232683171,10.6736585 C0.232683171,7.9897561 1.65512195,5.81365854 3.41,5.81365854 C5.164,5.81365854 6.58634146,7.98973171 6.58634146,10.6736585" id="Fill-4"></path>
                <path d="M18.497561,2.61243902 C18.497561,4.01297561 17.3619024,5.14853659 15.9614634,5.14853659 C14.5599756,5.14853659 13.4243902,4.01287805 13.4243902,2.61243902 C13.4243902,1.21190244 14.5600488,0.0763414634 15.9614634,0.0763414634 C17.362,0.0763414634 18.497561,1.212 18.497561,2.61243902" id="Fill-5"></path>
                <path d="M15.9612195,5.6497561 C13.8585122,5.6497561 12.155122,9.58365854 12.155122,10.8517073 C12.155122,11.4576585 12.5467073,12.006439 13.1802683,12.4170732 C13.6109024,14.2387317 14.6922683,15.532439 15.9612439,15.532439 C17.2302195,15.532439 18.3116585,14.2376585 18.7422195,12.4170732 C19.3767561,12.006439 19.7673659,11.4576585 19.7673659,10.8517073 C19.7673659,9.58360976 18.0638537,5.6497561 15.9612683,5.6497561 L15.9612195,5.6497561 Z" id="Fill-6"></path>
            </g>
        </g>
    </g>
</svg>